# xmcd
#
# Track frame offsets:
#	150
#	24155
#	38232
#	61692
#	76672
#	89592
#	117162
#	134170
#	150412
#	167145
#
# Disc length: 2407 seconds
#
# Revision: 7
# Processed by: cddbd v1.5.2PL0 Copyright (c) Steve Scherf et al.
# Submitted via: audiograbber 1.83.01
#
DISCID=7209650a
DTITLE=The O'Jays - Back Stabbers
DYEAR=1972
DGENRE=Soul Oldies
TTITLE0=When The World's At Peace
TTITLE1=Back Stabbers
TTITLE2=Who Am I
TTITLE3=(They Call Me) Mr. Lucky
TTITLE4=Time To Get Down
TTITLE5=992 Arguments
TTITLE6=Listen To The Clock On The Wall
TTITLE7=Shiftless, Shady, Jealous Kind Of People
TTITLE8=Sunshine
TTITLE9=Love Train
EXTD=The O'Jays - Original Album Classics (2014) [Box-Set]\nYEAR: 1972\n\nMARO
EXTD=\n
EXTT0=
EXTT1=
EXTT2=
EXTT3=
EXTT4=
EXTT5=
EXTT6=
EXTT7=
EXTT8=
EXTT9=
PLAYORDER=
